<svg version="1.1" xmlns="http://www.w3.org/2000/svg" xmlns:xlink="http://www.w3.org/1999/xlink" width="49.3054" height="53.90334" viewBox="0,0,49.3054,53.90334"><g transform="translate(-214.09098,-149.44653)"><g data-paper-data="{&quot;isPaintingLayer&quot;:true}" fill-rule="nonzero" stroke-linecap="butt" stroke-linejoin="miter" stroke-miterlimit="10" stroke-dasharray="" stroke-dashoffset="0" style="mix-blend-mode: normal"><path d="M262.14638,178.60682c0,12.97485 -10.47774,23.49305 -23.4027,23.49305c-12.92496,0 -23.4027,-10.5182 -23.4027,-23.49305c0,-12.97485 10.47774,-23.49305 23.4027,-23.49305c12.92496,0 23.4027,10.51819 23.4027,23.49305z" fill="#ffffff" stroke="#000000" stroke-width="2.5"/><text transform="translate(229.56107,186.07614) scale(0.84206,0.84206)" font-size="40" xml:space="preserve" fill="#c48c00" fill-rule="nonzero" stroke="none" stroke-width="1" stroke-linecap="butt" stroke-linejoin="miter" stroke-miterlimit="10" stroke-dasharray="" stroke-dashoffset="0" font-family="Sans Serif" font-weight="normal" text-anchor="start" style="mix-blend-mode: normal"><tspan x="0" dy="0">e</tspan></text><path d="M235.39672,194.7863c0,-1.77192 1.43643,-3.20835 3.20835,-3.20835c1.77192,0 3.20835,1.43643 3.20835,3.20835c0,1.77192 -1.43643,3.20835 -3.20835,3.20835c-1.77192,0 -3.20835,-1.43643 -3.20835,-3.20835z" fill="#fff700" stroke="none" stroke-width="0"/><path d="M246.33731,165.30165l1.47698,0.89365l-14.15159,23.13155l-1.47698,-0.89365z" fill="#000000" stroke="none" stroke-width="0"/></g></g></svg>