<svg version="1.1" xmlns="http://www.w3.org/2000/svg" xmlns:xlink="http://www.w3.org/1999/xlink" width="49.3054" height="49.4861" viewBox="0,0,49.3054,49.4861"><g transform="translate(-214.09098,-153.86378)"><g data-paper-data="{&quot;isPaintingLayer&quot;:true}" fill-rule="nonzero" stroke-linejoin="miter" stroke-miterlimit="10" stroke-dasharray="" stroke-dashoffset="0" style="mix-blend-mode: normal"><path d="M262.14638,178.60684c0,12.97485 -10.47774,23.49305 -23.4027,23.49305c-12.92496,0 -23.4027,-10.5182 -23.4027,-23.49305c0,-12.97485 10.47774,-23.49305 23.4027,-23.49305c12.92496,0 23.4027,10.51819 23.4027,23.49305z" fill="#ffffff" stroke="#000000" stroke-width="2.5" stroke-linecap="butt"/><text transform="translate(227.59341,187.66566) scale(0.6388,0.6388)" font-size="40" xml:space="preserve" fill="#c48c00" fill-rule="nonzero" stroke="none" stroke-width="1" stroke-linecap="butt" stroke-linejoin="miter" stroke-miterlimit="10" stroke-dasharray="" stroke-dashoffset="0" font-family="Sans Serif" font-weight="normal" text-anchor="start" style="mix-blend-mode: normal"><tspan x="0" dy="0">?</tspan></text><path d="M236.79165,194.78631c0,-1.77192 1.43643,-3.20835 3.20835,-3.20835c1.77192,0 3.20835,1.43643 3.20835,3.20835c0,1.77192 -1.43643,3.20835 -3.20835,3.20835c-1.77192,0 -3.20835,-1.43643 -3.20835,-3.20835z" fill="#fff700" stroke="none" stroke-width="0" stroke-linecap="butt"/><text transform="translate(240.98477,187.66567) scale(0.6388,0.6388)" font-size="40" xml:space="preserve" fill="#c48c00" fill-rule="nonzero" stroke="none" stroke-width="1" stroke-linecap="butt" stroke-linejoin="miter" stroke-miterlimit="10" stroke-dasharray="" stroke-dashoffset="0" font-family="Sans Serif" font-weight="normal" text-anchor="start" style="mix-blend-mode: normal"><tspan x="0" dy="0">r</tspan></text><path d="M249.26584,165.76551l-8.86298,-4.02863l-9.66871,4.2972z" fill="none" stroke="#000000" stroke-width="1" stroke-linecap="round"/></g></g></svg>