<svg version="1.1" xmlns="http://www.w3.org/2000/svg" xmlns:xlink="http://www.w3.org/1999/xlink" width="255.6665" height="70.53384" viewBox="0,0,255.6665,70.53384"><g transform="translate(-112.16675,-144.73308)"><g data-paper-data="{&quot;isPaintingLayer&quot;:true}" fill="#ffffff" fill-rule="nonzero" stroke="#000000" stroke-width="5" stroke-linecap="butt" stroke-linejoin="miter" stroke-miterlimit="10" stroke-dasharray="" stroke-dashoffset="0" style="mix-blend-mode: normal"><path d="M180.33849,180c0,18.09666 -14.70112,32.76692 -32.83587,32.76692c-18.13475,0 -32.83587,-14.67025 -32.83587,-32.76692c0,-18.09666 14.70112,-32.76692 32.83587,-32.76692c18.13475,0 32.83587,14.67025 32.83587,32.76692z"/><path d="M272.83587,180c0,18.09666 -14.70112,32.76692 -32.83586,32.76692c-18.13474,0 -32.83587,-14.67026 -32.83587,-32.76692c0,-18.09666 14.70113,-32.76692 32.83587,-32.76692c18.13474,0 32.83586,14.67026 32.83586,32.76692z"/><path d="M365.33325,180c0,18.09666 -14.70112,32.76692 -32.83586,32.76692c-18.13474,0 -32.83587,-14.67026 -32.83587,-32.76692c0,-18.09666 14.70113,-32.76692 32.83587,-32.76692c18.13474,0 32.83586,14.67026 32.83586,32.76692z"/></g></g></svg>