<svg version="1.1" xmlns="http://www.w3.org/2000/svg" xmlns:xlink="http://www.w3.org/1999/xlink" width="49.3054" height="49.4861" viewBox="0,0,49.3054,49.4861"><g transform="translate(-215.3473,-155.45371)"><g data-paper-data="{&quot;isPaintingLayer&quot;:true}" fill-rule="nonzero" stroke-linejoin="miter" stroke-miterlimit="10" stroke-dasharray="" stroke-dashoffset="0" style="mix-blend-mode: normal"><path d="M263.4027,180.19676c0,12.97485 -10.47774,23.49305 -23.4027,23.49305c-12.92496,0 -23.4027,-10.5182 -23.4027,-23.49305c0,-12.97485 10.47774,-23.49305 23.4027,-23.49305c12.92496,0 23.4027,10.51819 23.4027,23.49305z" fill="#ffffff" stroke="#000000" stroke-width="2.5" stroke-linecap="butt"/><text transform="translate(233.59977,191.2228) scale(0.71591,0.71591)" font-size="40" xml:space="preserve" fill="#c48c00" fill-rule="nonzero" stroke="none" stroke-width="1" stroke-linecap="butt" stroke-linejoin="miter" stroke-miterlimit="10" stroke-dasharray="" stroke-dashoffset="0" font-family="Sans Serif" font-weight="normal" text-anchor="start" style="mix-blend-mode: normal"><tspan x="0" dy="0">?</tspan></text><path d="M236.06818,196.37624c0,-1.77192 1.43643,-3.20835 3.20835,-3.20835c1.77192,0 3.20835,1.43643 3.20835,3.20835c0,1.77192 -1.43643,3.20835 -3.20835,3.20835c-1.77192,0 -3.20835,-1.43643 -3.20835,-3.20835z" fill="#fff700" stroke="none" stroke-width="0" stroke-linecap="butt"/><path d="M230.99594,162.92116c0,0 1.86028,4.79101 8.48049,4.67889c7.35601,-0.12459 9.94264,-4.67889 9.94264,-4.67889" fill="none" stroke="#000000" stroke-width="2" stroke-linecap="round"/></g></g></svg>